<svg xmlns="http://www.w3.org/2000/svg" width="200" height="200" viewBox="0 0 200 200" version="1.1"><path d="M 59.556 56.267 C 52.843 60.069, 51.987 62.630, 51.924 79.110 C 51.894 87.025, 51.899 94.085, 51.935 94.800 C 51.982 95.742, 53.548 96.017, 57.629 95.800 L 63.258 95.500 63.140 84.500 C 62.987 70.149, 63.777 66.500, 67.041 66.500 L 69.500 66.500 70 81 L 70.500 95.500 76.250 95.800 L 82 96.100 82 82.172 C 82 70.685, 82.277 68.015, 83.584 66.930 C 84.731 65.978, 85.627 65.905, 86.834 66.664 C 88.215 67.533, 88.585 70.085, 89 81.606 L 89.500 95.500 95.318 95.802 L 101.136 96.104 100.818 79.478 L 100.500 62.852 96.359 58.992 C 91.202 54.184, 86.293 53.051, 80.167 55.254 C 76.365 56.621, 75.384 56.641, 72.438 55.410 C 67.713 53.436, 64.134 53.674, 59.556 56.267 M 121.233 55.071 C 113.835 57.325, 107.023 66.915, 107.006 75.101 C 106.985 84.576, 114.545 93.255, 124.733 95.454 C 129.855 96.559, 137.889 93.725, 142.195 89.293 C 146.806 84.548, 148 81.413, 148 74.048 C 148 69.130, 147.496 67.482, 144.750 63.433 C 142.903 60.709, 139.831 57.786, 137.635 56.662 C 133.128 54.356, 125.885 53.653, 121.233 55.071 M 121.923 68.923 C 120.315 70.531, 119 72.751, 119 73.858 C 119 80.372, 124.951 84.959, 130.771 82.930 C 137.318 80.648, 138.136 70.673, 132.035 67.518 C 127.731 65.292, 125.202 65.644, 121.923 68.923 M 62.368 105.088 C 60.646 105.587, 57.608 107.798, 55.618 110.001 L 52 114.006 52 129.003 C 52 137.251, 51.888 144.338, 51.750 144.750 C 51.612 145.162, 54.087 145.635, 57.250 145.800 L 63 146.100 63.158 136.800 C 63.246 131.685, 63.224 126.600, 63.110 125.500 C 62.728 121.804, 64.041 117.198, 65.654 116.579 C 69.301 115.180, 70 117.681, 70 132.122 L 70 146 76 146 L 82 146 82 132.571 C 82 121.697, 82.299 118.844, 83.571 117.571 C 85.457 115.685, 86.219 115.619, 87.800 117.200 C 88.617 118.017, 89 122.800, 89 132.200 L 89 146 95 146 L 101 146 101 130.950 C 101 114.679, 100.347 111.991, 95.457 108.145 C 90.762 104.452, 86.472 103.615, 81.149 105.357 C 77.012 106.710, 75.911 106.728, 72.456 105.497 C 67.923 103.882, 66.700 103.833, 62.368 105.088 M 122.994 104.934 C 112.139 108.236, 105.830 117.713, 107.422 128.327 C 108.274 134.011, 111.310 138.568, 116.825 142.445 C 120.471 145.007, 122.056 145.466, 127.310 145.482 C 135.372 145.506, 140.449 142.910, 144.750 136.567 C 147.496 132.518, 148 130.870, 148 125.952 C 148 122.750, 147.523 118.863, 146.940 117.315 C 145.139 112.530, 138.989 107.074, 133.586 105.470 C 128.175 103.863, 126.752 103.791, 122.994 104.934 M 124 117.746 C 119.443 120.030, 117.770 125.473, 120.393 129.477 C 125.323 137.001, 136 134.067, 136 125.189 C 136 121.563, 133.238 117, 131.043 117 C 130.559 117, 129.564 116.773, 128.832 116.496 C 128.099 116.219, 125.925 116.781, 124 117.746" stroke="none" fill="#f8ecf5" fill-rule="evenodd"/><path d="M -0 100.005 L -0 200.010 100.250 199.755 L 200.500 199.500 200.755 99.750 L 201.010 0 100.505 0 L 0 0 -0 100.005 M 0.481 100.500 C 0.481 155.500, 0.602 178.147, 0.750 150.826 C 0.898 123.506, 0.898 78.506, 0.750 50.826 C 0.602 23.147, 0.481 45.500, 0.481 100.500 M 59.556 56.267 C 52.843 60.069, 51.987 62.630, 51.924 79.110 C 51.894 87.025, 51.899 94.085, 51.935 94.800 C 51.982 95.742, 53.548 96.017, 57.629 95.800 L 63.258 95.500 63.140 84.500 C 62.987 70.149, 63.777 66.500, 67.041 66.500 L 69.500 66.500 70 81 L 70.500 95.500 76.250 95.800 L 82 96.100 82 82.172 C 82 70.685, 82.277 68.015, 83.584 66.930 C 84.731 65.978, 85.627 65.905, 86.834 66.664 C 88.215 67.533, 88.585 70.085, 89 81.606 L 89.500 95.500 95.318 95.802 L 101.136 96.104 100.818 79.478 L 100.500 62.852 96.359 58.992 C 91.202 54.184, 86.293 53.051, 80.167 55.254 C 76.365 56.621, 75.384 56.641, 72.438 55.410 C 67.713 53.436, 64.134 53.674, 59.556 56.267 M 121.233 55.071 C 113.835 57.325, 107.023 66.915, 107.006 75.101 C 106.985 84.576, 114.545 93.255, 124.733 95.454 C 129.855 96.559, 137.889 93.725, 142.195 89.293 C 146.806 84.548, 148 81.413, 148 74.048 C 148 69.130, 147.496 67.482, 144.750 63.433 C 142.903 60.709, 139.831 57.786, 137.635 56.662 C 133.128 54.356, 125.885 53.653, 121.233 55.071 M 121.923 68.923 C 120.315 70.531, 119 72.751, 119 73.858 C 119 80.372, 124.951 84.959, 130.771 82.930 C 137.318 80.648, 138.136 70.673, 132.035 67.518 C 127.731 65.292, 125.202 65.644, 121.923 68.923 M 62.368 105.088 C 60.646 105.587, 57.608 107.798, 55.618 110.001 L 52 114.006 52 129.003 C 52 137.251, 51.888 144.338, 51.750 144.750 C 51.612 145.162, 54.087 145.635, 57.250 145.800 L 63 146.100 63.158 136.800 C 63.246 131.685, 63.224 126.600, 63.110 125.500 C 62.728 121.804, 64.041 117.198, 65.654 116.579 C 69.301 115.180, 70 117.681, 70 132.122 L 70 146 76 146 L 82 146 82 132.571 C 82 121.697, 82.299 118.844, 83.571 117.571 C 85.457 115.685, 86.219 115.619, 87.800 117.200 C 88.617 118.017, 89 122.800, 89 132.200 L 89 146 95 146 L 101 146 101 130.950 C 101 114.679, 100.347 111.991, 95.457 108.145 C 90.762 104.452, 86.472 103.615, 81.149 105.357 C 77.012 106.710, 75.911 106.728, 72.456 105.497 C 67.923 103.882, 66.700 103.833, 62.368 105.088 M 122.994 104.934 C 112.139 108.236, 105.830 117.713, 107.422 128.327 C 108.274 134.011, 111.310 138.568, 116.825 142.445 C 120.471 145.007, 122.056 145.466, 127.310 145.482 C 135.372 145.506, 140.449 142.910, 144.750 136.567 C 147.496 132.518, 148 130.870, 148 125.952 C 148 122.750, 147.523 118.863, 146.940 117.315 C 145.139 112.530, 138.989 107.074, 133.586 105.470 C 128.175 103.863, 126.752 103.791, 122.994 104.934 M 124 117.746 C 119.443 120.030, 117.770 125.473, 120.393 129.477 C 125.323 137.001, 136 134.067, 136 125.189 C 136 121.563, 133.238 117, 131.043 117 C 130.559 117, 129.564 116.773, 128.832 116.496 C 128.099 116.219, 125.925 116.781, 124 117.746" stroke="none" fill="#a30463" fill-rule="evenodd"/></svg>