<svg xmlns="http://www.w3.org/2000/svg" width="512" height="512" viewBox="0 0 512 512" version="1.1"><path d="M 406.418 190.022 C 389.813 198.242, 386.902 218.279, 399.577 237.115 C 401.460 239.912, 403 242.428, 403 242.706 C 403 242.984, 401.805 244.626, 400.345 246.356 C 397.587 249.622, 393.027 258.571, 393.010 260.750 C 393.004 261.438, 393.788 261.992, 394.750 261.983 C 395.905 261.972, 397.295 260.128, 398.841 256.557 C 400.129 253.581, 402.795 249.263, 404.765 246.961 C 407.218 244.096, 408.057 242.385, 407.424 241.537 C 406.916 240.856, 405.052 238.384, 403.282 236.044 C 399.909 231.584, 396.630 223.874, 395.465 217.668 L 394.777 214 399.996 214 C 402.866 214, 408.307 214.747, 412.088 215.659 L 418.962 217.318 421.180 214.409 C 424.602 209.920, 431.098 204.073, 435.263 201.732 L 439.030 199.615 435.265 195.688 C 433.194 193.529, 429.700 190.925, 427.500 189.903 C 421.914 187.307, 411.787 187.365, 406.418 190.022 M 443.906 200.403 C 434.899 203.872, 426.237 210.644, 421.964 217.558 L 419.943 220.829 414.721 219.029 C 411.850 218.039, 406.913 216.920, 403.750 216.543 C 398.488 215.914, 398 216.021, 398 217.799 C 398 219.420, 398.951 219.852, 403.750 220.406 C 406.913 220.772, 412.085 222.128, 415.244 223.421 L 420.987 225.772 425.477 219.479 C 429.894 213.291, 440.998 204.508, 443.409 205.296 C 445.140 205.862, 447.105 212.876, 447.714 220.658 L 448.275 227.817 454.751 230.569 C 458.313 232.083, 463.496 235.115, 466.270 237.308 C 471.077 241.107, 471.376 241.206, 472.686 239.414 C 474.600 236.798, 477 228.323, 477 224.185 C 477 215.560, 470.899 206.030, 462.701 201.847 C 457.606 199.248, 448.686 198.563, 443.906 200.403 M 439.836 208.498 C 439.562 208.771, 439.943 211.809, 440.683 215.248 C 441.473 218.921, 441.782 223.814, 441.432 227.111 L 440.836 232.721 445.668 233.937 C 452.232 235.588, 461.043 240.417, 465.068 244.570 C 468.305 247.910, 468.339 248.035, 466.444 249.550 C 464.115 251.412, 451.937 257.522, 449.047 258.277 C 447.283 258.739, 446.996 259.620, 446.974 264.656 C 446.959 268.149, 445.983 273.316, 444.550 277.500 C 442.982 282.074, 442.490 284.847, 443.128 285.500 C 443.665 286.050, 447.605 286.500, 451.882 286.500 C 458.796 286.500, 460.204 286.163, 464.579 283.464 C 470.398 279.874, 475.420 272.246, 476.329 265.618 C 477.084 260.105, 474.911 251.333, 471.518 246.207 C 467.239 239.741, 456.708 232.843, 447.750 230.639 C 445.067 229.978, 445 229.787, 444.994 222.731 C 444.986 212.029, 442.676 205.657, 439.836 208.498 M 46.250 215.139 C 44.702 216.701, 44.439 320.563, 45.978 323 C 46.769 324.254, 50.998 324.550, 71.712 324.805 C 105.197 325.217, 113.326 323.674, 121.682 315.318 C 127.938 309.062, 129.500 304.903, 129.500 294.500 C 129.500 287.733, 129.038 284.572, 127.639 281.757 C 124.844 276.134, 118.467 270.314, 112.776 268.191 L 107.704 266.299 111.013 265.145 C 120.634 261.791, 126.526 252.370, 126.426 240.500 C 126.333 229.483, 121.084 221.673, 110.500 216.801 C 105.706 214.595, 104.307 214.487, 76.500 214.189 C 54.160 213.950, 47.213 214.168, 46.250 215.139 M 137 267.309 C 137 311.745, 137.236 320.941, 138.418 322.559 C 139.625 324.212, 141.074 324.500, 148.168 324.500 L 156.500 324.500 156.759 271.838 C 156.920 239.061, 156.646 218.199, 156.034 216.588 C 155.075 214.068, 154.813 214, 146.025 214 L 137 214 137 267.309 M 168.026 215.951 C 167.329 217.254, 167.068 235.597, 167.241 271.201 L 167.500 324.500 189 324.774 C 217.326 325.135, 226.342 324.116, 235.698 319.497 C 253.029 310.939, 261.872 291.910, 260.736 265.617 C 259.753 242.839, 252.209 227.867, 237.607 219.713 C 228.573 214.669, 223.604 214, 195.141 214 C 170.314 214, 169.021 214.093, 168.026 215.951 M 257 214.707 C 257 216.493, 292.297 317.771, 293.638 319.834 C 296.068 323.571, 300.962 325, 311.325 325 L 320.715 325 335.496 282.250 C 353.097 231.345, 354.962 226.964, 361.465 221.240 C 364.114 218.908, 366.668 217, 367.141 217 C 367.613 217, 368 216.325, 368 215.500 C 368 214.249, 365.987 214, 355.882 214 L 343.765 214 340.029 217.750 C 336.548 221.244, 335.345 224.381, 322.397 263.711 C 314.754 286.927, 308.163 305.940, 307.750 305.961 C 307.337 305.982, 307 305.206, 307 304.235 C 307 300.712, 277.924 216.484, 276.281 215.250 C 274.513 213.921, 257 213.428, 257 214.707 M 384.288 219.475 C 378.757 221.880, 372.311 229.215, 370.566 235.089 C 368.626 241.623, 368.617 243.349, 370.495 249.672 C 372.475 256.339, 378.515 263.085, 385.212 266.109 C 389.645 268.110, 391.956 268.472, 399.500 268.350 C 404.915 268.262, 410.243 267.566, 412.876 266.602 C 415.282 265.721, 417.573 265, 417.965 265 C 418.358 265, 420.722 267.631, 423.219 270.846 C 425.716 274.061, 429.165 277.693, 430.884 278.917 C 433.651 280.887, 434.080 280.956, 434.633 279.515 C 435.056 278.411, 433.741 276.380, 430.540 273.194 C 427.945 270.612, 424.695 266.587, 423.316 264.250 C 421.938 261.913, 420.740 260, 420.655 260.001 C 420.570 260.001, 418.072 260.924, 415.104 262.052 C 405.135 265.841, 390 265.916, 390 262.176 C 390 260.336, 395.942 247.863, 398.420 244.500 C 399.766 242.675, 399.591 242.020, 396.421 237.005 C 393.503 232.388, 391.828 228.151, 389.403 219.250 C 388.980 217.695, 388.315 217.724, 384.288 219.475 M 64 245.052 L 64 261.239 79.785 260.837 C 97.064 260.397, 100.029 259.535, 104.395 253.677 C 107.373 249.682, 107.381 239.337, 104.410 235.323 C 100.628 230.214, 97.930 229.528, 80.250 229.183 L 64 228.865 64 245.052 M 187 269 L 187 309 202.374 309 C 213.303 309, 218.946 308.577, 221.890 307.539 C 234.493 303.092, 241 290.220, 241 269.737 C 241 252.654, 236.855 240.718, 228.855 234.766 C 222.733 230.211, 216.951 229, 201.322 229 L 187 229 187 269 M 457.044 248.081 C 454.593 249.690, 450.037 251.534, 446.919 252.178 L 441.251 253.348 440.787 262.982 C 440.421 270.567, 439.769 273.825, 437.717 278.308 C 436.283 281.438, 434.748 283.996, 434.305 283.990 C 432.698 283.971, 424.701 276.944, 421.259 272.527 C 419.319 270.037, 417.680 268.005, 417.616 268.011 C 417.552 268.017, 415.291 268.692, 412.591 269.511 C 409.891 270.330, 403.866 271, 399.202 271 L 390.721 271 391.305 275.932 C 392.370 284.922, 398.533 293.236, 406.645 296.625 C 410.690 298.315, 418.925 298.402, 424.236 296.811 C 429.730 295.165, 437.398 287.966, 440.387 281.648 C 442.692 276.774, 444.609 268.261, 445.238 260.096 C 445.480 256.957, 445.895 256.563, 450.574 255.044 C 453.365 254.138, 457.779 252.148, 460.383 250.622 C 464.253 248.353, 464.902 247.587, 463.936 246.423 C 462.418 244.593, 462.321 244.617, 457.044 248.081 M 64 291.562 L 64 309.124 82.430 308.812 C 99.209 308.528, 101.107 308.315, 103.618 306.438 C 108.356 302.897, 110.301 299.411, 110.783 293.603 C 111.466 285.370, 108.356 279.540, 101.606 276.397 C 96.893 274.202, 95.251 274.019, 80.250 274.010 L 64 274 64 291.562" stroke="none" fill="#f7ecc7" fill-rule="evenodd"/><path d="M 0 256.002 L 0 512.004 256.250 511.752 L 512.500 511.500 512.752 255.750 L 513.004 0 256.502 0 L 0 0 0 256.002 M 0.492 256.500 C 0.492 397.300, 0.608 454.751, 0.750 384.170 C 0.892 313.588, 0.892 198.388, 0.750 128.170 C 0.608 57.951, 0.492 115.700, 0.492 256.500 M 406.418 190.022 C 389.813 198.242, 386.902 218.279, 399.577 237.115 C 401.460 239.912, 403 242.428, 403 242.706 C 403 242.984, 401.805 244.626, 400.345 246.356 C 397.587 249.622, 393.027 258.571, 393.010 260.750 C 393.004 261.438, 393.788 261.992, 394.750 261.983 C 395.905 261.972, 397.295 260.128, 398.841 256.557 C 400.129 253.581, 402.795 249.263, 404.765 246.961 C 407.218 244.096, 408.057 242.385, 407.424 241.537 C 406.916 240.856, 405.052 238.384, 403.282 236.044 C 399.909 231.584, 396.630 223.874, 395.465 217.668 L 394.777 214 399.996 214 C 402.866 214, 408.307 214.747, 412.088 215.659 L 418.962 217.318 421.180 214.409 C 424.602 209.920, 431.098 204.073, 435.263 201.732 L 439.030 199.615 435.265 195.688 C 433.194 193.529, 429.700 190.925, 427.500 189.903 C 421.914 187.307, 411.787 187.365, 406.418 190.022 M 443.906 200.403 C 434.899 203.872, 426.237 210.644, 421.964 217.558 L 419.943 220.829 414.721 219.029 C 411.850 218.039, 406.913 216.920, 403.750 216.543 C 398.488 215.914, 398 216.021, 398 217.799 C 398 219.420, 398.951 219.852, 403.750 220.406 C 406.913 220.772, 412.085 222.128, 415.244 223.421 L 420.987 225.772 425.477 219.479 C 429.894 213.291, 440.998 204.508, 443.409 205.296 C 445.140 205.862, 447.105 212.876, 447.714 220.658 L 448.275 227.817 454.751 230.569 C 458.313 232.083, 463.496 235.115, 466.270 237.308 C 471.077 241.107, 471.376 241.206, 472.686 239.414 C 474.600 236.798, 477 228.323, 477 224.185 C 477 215.560, 470.899 206.030, 462.701 201.847 C 457.606 199.248, 448.686 198.563, 443.906 200.403 M 439.836 208.498 C 439.562 208.771, 439.943 211.809, 440.683 215.248 C 441.473 218.921, 441.782 223.814, 441.432 227.111 L 440.836 232.721 445.668 233.937 C 452.232 235.588, 461.043 240.417, 465.068 244.570 C 468.305 247.910, 468.339 248.035, 466.444 249.550 C 464.115 251.412, 451.937 257.522, 449.047 258.277 C 447.283 258.739, 446.996 259.620, 446.974 264.656 C 446.959 268.149, 445.983 273.316, 444.550 277.500 C 442.982 282.074, 442.490 284.847, 443.128 285.500 C 443.665 286.050, 447.605 286.500, 451.882 286.500 C 458.796 286.500, 460.204 286.163, 464.579 283.464 C 470.398 279.874, 475.420 272.246, 476.329 265.618 C 477.084 260.105, 474.911 251.333, 471.518 246.207 C 467.239 239.741, 456.708 232.843, 447.750 230.639 C 445.067 229.978, 445 229.787, 444.994 222.731 C 444.986 212.029, 442.676 205.657, 439.836 208.498 M 46.250 215.139 C 44.702 216.701, 44.439 320.563, 45.978 323 C 46.769 324.254, 50.998 324.550, 71.712 324.805 C 105.197 325.217, 113.326 323.674, 121.682 315.318 C 127.938 309.062, 129.500 304.903, 129.500 294.500 C 129.500 287.733, 129.038 284.572, 127.639 281.757 C 124.844 276.134, 118.467 270.314, 112.776 268.191 L 107.704 266.299 111.013 265.145 C 120.634 261.791, 126.526 252.370, 126.426 240.500 C 126.333 229.483, 121.084 221.673, 110.500 216.801 C 105.706 214.595, 104.307 214.487, 76.500 214.189 C 54.160 213.950, 47.213 214.168, 46.250 215.139 M 137 267.309 C 137 311.745, 137.236 320.941, 138.418 322.559 C 139.625 324.212, 141.074 324.500, 148.168 324.500 L 156.500 324.500 156.759 271.838 C 156.920 239.061, 156.646 218.199, 156.034 216.588 C 155.075 214.068, 154.813 214, 146.025 214 L 137 214 137 267.309 M 168.026 215.951 C 167.329 217.254, 167.068 235.597, 167.241 271.201 L 167.500 324.500 189 324.774 C 217.326 325.135, 226.342 324.116, 235.698 319.497 C 253.029 310.939, 261.872 291.910, 260.736 265.617 C 259.753 242.839, 252.209 227.867, 237.607 219.713 C 228.573 214.669, 223.604 214, 195.141 214 C 170.314 214, 169.021 214.093, 168.026 215.951 M 257 214.707 C 257 216.493, 292.297 317.771, 293.638 319.834 C 296.068 323.571, 300.962 325, 311.325 325 L 320.715 325 335.496 282.250 C 353.097 231.345, 354.962 226.964, 361.465 221.240 C 364.114 218.908, 366.668 217, 367.141 217 C 367.613 217, 368 216.325, 368 215.500 C 368 214.249, 365.987 214, 355.882 214 L 343.765 214 340.029 217.750 C 336.548 221.244, 335.345 224.381, 322.397 263.711 C 314.754 286.927, 308.163 305.940, 307.750 305.961 C 307.337 305.982, 307 305.206, 307 304.235 C 307 300.712, 277.924 216.484, 276.281 215.250 C 274.513 213.921, 257 213.428, 257 214.707 M 384.288 219.475 C 378.757 221.880, 372.311 229.215, 370.566 235.089 C 368.626 241.623, 368.617 243.349, 370.495 249.672 C 372.475 256.339, 378.515 263.085, 385.212 266.109 C 389.645 268.110, 391.956 268.472, 399.500 268.350 C 404.915 268.262, 410.243 267.566, 412.876 266.602 C 415.282 265.721, 417.573 265, 417.965 265 C 418.358 265, 420.722 267.631, 423.219 270.846 C 425.716 274.061, 429.165 277.693, 430.884 278.917 C 433.651 280.887, 434.080 280.956, 434.633 279.515 C 435.056 278.411, 433.741 276.380, 430.540 273.194 C 427.945 270.612, 424.695 266.587, 423.316 264.250 C 421.938 261.913, 420.740 260, 420.655 260.001 C 420.570 260.001, 418.072 260.924, 415.104 262.052 C 405.135 265.841, 390 265.916, 390 262.176 C 390 260.336, 395.942 247.863, 398.420 244.500 C 399.766 242.675, 399.591 242.020, 396.421 237.005 C 393.503 232.388, 391.828 228.151, 389.403 219.250 C 388.980 217.695, 388.315 217.724, 384.288 219.475 M 64 245.052 L 64 261.239 79.785 260.837 C 97.064 260.397, 100.029 259.535, 104.395 253.677 C 107.373 249.682, 107.381 239.337, 104.410 235.323 C 100.628 230.214, 97.930 229.528, 80.250 229.183 L 64 228.865 64 245.052 M 187 269 L 187 309 202.374 309 C 213.303 309, 218.946 308.577, 221.890 307.539 C 234.493 303.092, 241 290.220, 241 269.737 C 241 252.654, 236.855 240.718, 228.855 234.766 C 222.733 230.211, 216.951 229, 201.322 229 L 187 229 187 269 M 457.044 248.081 C 454.593 249.690, 450.037 251.534, 446.919 252.178 L 441.251 253.348 440.787 262.982 C 440.421 270.567, 439.769 273.825, 437.717 278.308 C 436.283 281.438, 434.748 283.996, 434.305 283.990 C 432.698 283.971, 424.701 276.944, 421.259 272.527 C 419.319 270.037, 417.680 268.005, 417.616 268.011 C 417.552 268.017, 415.291 268.692, 412.591 269.511 C 409.891 270.330, 403.866 271, 399.202 271 L 390.721 271 391.305 275.932 C 392.370 284.922, 398.533 293.236, 406.645 296.625 C 410.690 298.315, 418.925 298.402, 424.236 296.811 C 429.730 295.165, 437.398 287.966, 440.387 281.648 C 442.692 276.774, 444.609 268.261, 445.238 260.096 C 445.480 256.957, 445.895 256.563, 450.574 255.044 C 453.365 254.138, 457.779 252.148, 460.383 250.622 C 464.253 248.353, 464.902 247.587, 463.936 246.423 C 462.418 244.593, 462.321 244.617, 457.044 248.081 M 64 291.562 L 64 309.124 82.430 308.812 C 99.209 308.528, 101.107 308.315, 103.618 306.438 C 108.356 302.897, 110.301 299.411, 110.783 293.603 C 111.466 285.370, 108.356 279.540, 101.606 276.397 C 96.893 274.202, 95.251 274.019, 80.250 274.010 L 64 274 64 291.562" stroke="none" fill="#046c6c" fill-rule="evenodd"/></svg>