<svg xmlns="http://www.w3.org/2000/svg" width="225" height="225" viewBox="0 0 225 225" version="1.1"><path d="M 208.500 11.991 C 202.450 12.958, 192.100 14.692, 185.500 15.845 C 178.900 16.997, 144.194 22.668, 108.376 28.447 C 72.557 34.226, 42.120 39.384, 40.737 39.910 C 33.533 42.649, 27.058 51.901, 27.028 59.500 C 27.019 61.700, 32.859 99.723, 40.006 143.997 C 47.153 188.270, 53 224.607, 53 224.747 C 53 224.886, 91.700 225, 139 225 L 225 225 225 117.500 L 225 10 222.250 10.116 C 220.738 10.180, 214.550 11.024, 208.500 11.991 M 144.223 54.557 C 142.035 56.089, 142 56.479, 142 79.122 C 142 93.071, 142.408 102.893, 143.035 104.066 C 144.208 106.258, 148.899 106.701, 150.800 104.800 C 151.666 103.934, 152 96.990, 152 79.857 C 152 56.455, 151.968 56.091, 149.777 54.557 C 148.555 53.701, 147.305 53, 147 53 C 146.695 53, 145.445 53.701, 144.223 54.557 M 68.200 59.200 C 66.625 60.775, 66.658 65.662, 68.250 66.684 C 68.938 67.126, 73.943 67.715, 79.374 67.993 L 89.249 68.500 77.637 83.500 C 60.497 105.640, 61.022 107, 86.699 107 C 102.500 107, 102.995 106.937, 104.443 104.728 C 106.336 101.839, 105.407 98.127, 102.631 97.487 C 101.459 97.217, 96.073 96.885, 90.661 96.748 L 80.823 96.500 91.848 82.238 C 105.040 65.172, 106.302 62.381, 102.240 59.250 C 100.007 57.530, 69.915 57.485, 68.200 59.200 M 114.445 72.959 C 111.111 74.309, 106.151 80.679, 105.426 84.541 C 102.634 99.423, 114.785 111.533, 126.421 105.465 C 128.423 104.420, 129.665 104.265, 130.371 104.971 C 131.775 106.375, 136.330 106.270, 137.800 104.800 C 138.620 103.980, 139 99.123, 139 89.455 C 139 76.406, 138.839 75.164, 136.923 73.431 C 134.940 71.636, 134.712 71.629, 131.842 73.276 C 129.148 74.822, 128.617 74.845, 126.696 73.500 C 124.399 71.890, 117.803 71.599, 114.445 72.959 M 163.389 73.905 C 152.288 80.674, 152.352 98.390, 163.500 104.787 C 166.680 106.612, 168.658 107.011, 173.152 106.735 C 183.585 106.092, 189.591 98.843, 188.796 87.853 C 188.324 81.334, 186.349 77.884, 181.010 74.250 C 176.694 71.312, 167.922 71.141, 163.389 73.905 M 117.073 83.635 C 114.195 87.293, 114.361 92.452, 117.455 95.545 C 120.569 98.660, 123.431 98.660, 126.545 95.545 C 131.373 90.718, 128.337 81, 122 81 C 120.107 81, 118.447 81.888, 117.073 83.635 M 167.073 83.635 C 162.944 88.883, 166.072 98, 172 98 C 175.313 98, 179 93.618, 179 89.680 C 179 82.027, 171.377 78.163, 167.073 83.635 M 66.655 116.829 C 65.197 118.440, 65 122.040, 65 147.138 C 65 170.148, 65.272 175.991, 66.419 177.559 C 67.773 179.412, 69.547 179.513, 105.334 179.785 C 141.134 180.056, 142.809 179.987, 142.356 178.255 C 142.096 177.257, 142.799 174.301, 143.921 171.685 L 145.959 166.930 140.945 154.362 C 135.874 141.651, 135.506 138.609, 138.910 137.528 C 142 136.548, 143.837 138.001, 145.624 142.838 C 146.572 145.402, 148.088 149.454, 148.994 151.843 L 150.642 156.186 153.984 147.541 C 155.822 142.786, 158.153 138.453, 159.163 137.913 C 161.619 136.599, 165 138.441, 165 141.093 C 165 142.693, 159.549 156.664, 150.309 178.750 C 149.493 180.699, 162.937 180.433, 165.777 178.443 C 167.989 176.894, 168 176.746, 168 147.143 C 168 125.343, 167.680 117.080, 166.800 116.200 C 165.900 115.300, 153.457 115, 116.955 115 C 71.098 115, 68.215 115.105, 66.655 116.829 M 71.571 126.571 C 70.253 127.890, 70 131.203, 70 147.137 C 70 158.318, 70.426 166.927, 71.035 168.066 C 72.208 170.258, 76.899 170.701, 78.800 168.800 C 79.479 168.121, 80 164.867, 80 161.300 L 80 155 85.032 155 C 91.403 155, 95.860 153.144, 99.297 149.059 C 104.839 142.473, 102.060 130.811, 93.980 126.752 C 89.260 124.380, 73.886 124.256, 71.571 126.571 M 80 140.630 L 80 147.260 84.499 146.753 C 90.204 146.110, 92 144.600, 92 140.449 C 92 135.897, 89.773 134, 84.429 134 L 80 134 80 140.630 M 110.207 138.669 C 99.959 143.719, 99.238 161.087, 108.999 167.750 C 112.793 170.340, 119.563 170.771, 122.515 168.612 C 124.143 167.422, 124.740 167.439, 126.707 168.727 C 128.761 170.074, 129.260 170.060, 131.500 168.592 C 133.959 166.981, 134 166.736, 134 153.677 C 134 144.684, 133.613 140.013, 132.800 139.200 C 131.348 137.748, 126.360 137.609, 125.502 138.996 C 125.114 139.625, 123.818 139.440, 121.993 138.496 C 118.273 136.573, 114.343 136.630, 110.207 138.669 M 114.223 147.557 C 112.513 148.754, 112 150.104, 112 153.402 C 112 158.336, 114.199 161, 118.272 161 C 123.531 161, 126.087 152.087, 122 148 C 119.597 145.597, 117.214 145.462, 114.223 147.557" stroke="none" fill="#f9fbfb" fill-rule="evenodd"/><path d="M 0 112.500 L 0 225 26.500 225 C 41.075 225, 53 224.886, 53 224.747 C 53 224.607, 47.153 188.270, 40.006 143.997 C 32.859 99.723, 27.019 61.700, 27.028 59.500 C 27.058 51.896, 33.533 42.649, 40.746 39.906 C 42.134 39.379, 76.847 33.543, 117.885 26.939 C 158.923 20.334, 193.137 14.707, 193.917 14.433 C 195.536 13.864, 221.365 10, 223.550 10 C 224.794 10, 225.026 24.667, 225.250 117.250 L 225.509 224.500 225.755 112.250 L 226 0 113 0 L 0 0 0 112.500 M 0.483 113 C 0.483 174.875, 0.603 200.188, 0.750 169.250 C 0.897 138.313, 0.897 87.688, 0.750 56.750 C 0.603 25.813, 0.483 51.125, 0.483 113 M 144.223 54.557 C 142.035 56.089, 142 56.479, 142 79.122 C 142 93.071, 142.408 102.893, 143.035 104.066 C 144.208 106.258, 148.899 106.701, 150.800 104.800 C 151.666 103.934, 152 96.990, 152 79.857 C 152 56.455, 151.968 56.091, 149.777 54.557 C 148.555 53.701, 147.305 53, 147 53 C 146.695 53, 145.445 53.701, 144.223 54.557 M 68.200 59.200 C 66.625 60.775, 66.658 65.662, 68.250 66.684 C 68.938 67.126, 73.943 67.715, 79.374 67.993 L 89.249 68.500 77.637 83.500 C 60.497 105.640, 61.022 107, 86.699 107 C 102.500 107, 102.995 106.937, 104.443 104.728 C 106.336 101.839, 105.407 98.127, 102.631 97.487 C 101.459 97.217, 96.073 96.885, 90.661 96.748 L 80.823 96.500 91.848 82.238 C 105.040 65.172, 106.302 62.381, 102.240 59.250 C 100.007 57.530, 69.915 57.485, 68.200 59.200 M 114.445 72.959 C 111.111 74.309, 106.151 80.679, 105.426 84.541 C 102.634 99.423, 114.785 111.533, 126.421 105.465 C 128.423 104.420, 129.665 104.265, 130.371 104.971 C 131.775 106.375, 136.330 106.270, 137.800 104.800 C 138.620 103.980, 139 99.123, 139 89.455 C 139 76.406, 138.839 75.164, 136.923 73.431 C 134.940 71.636, 134.712 71.629, 131.842 73.276 C 129.148 74.822, 128.617 74.845, 126.696 73.500 C 124.399 71.890, 117.803 71.599, 114.445 72.959 M 163.389 73.905 C 152.288 80.674, 152.352 98.390, 163.500 104.787 C 166.680 106.612, 168.658 107.011, 173.152 106.735 C 183.585 106.092, 189.591 98.843, 188.796 87.853 C 188.324 81.334, 186.349 77.884, 181.010 74.250 C 176.694 71.312, 167.922 71.141, 163.389 73.905 M 117.073 83.635 C 114.195 87.293, 114.361 92.452, 117.455 95.545 C 120.569 98.660, 123.431 98.660, 126.545 95.545 C 131.373 90.718, 128.337 81, 122 81 C 120.107 81, 118.447 81.888, 117.073 83.635 M 167.073 83.635 C 162.944 88.883, 166.072 98, 172 98 C 175.313 98, 179 93.618, 179 89.680 C 179 82.027, 171.377 78.163, 167.073 83.635 M 66.655 116.829 C 65.197 118.440, 65 122.040, 65 147.138 C 65 170.148, 65.272 175.991, 66.419 177.559 C 67.773 179.412, 69.547 179.513, 105.334 179.785 C 141.134 180.056, 142.809 179.987, 142.356 178.255 C 142.096 177.257, 142.799 174.301, 143.921 171.685 L 145.959 166.930 140.945 154.362 C 135.874 141.651, 135.506 138.609, 138.910 137.528 C 142 136.548, 143.837 138.001, 145.624 142.838 C 146.572 145.402, 148.088 149.454, 148.994 151.843 L 150.642 156.186 153.984 147.541 C 155.822 142.786, 158.153 138.453, 159.163 137.913 C 161.619 136.599, 165 138.441, 165 141.093 C 165 142.693, 159.549 156.664, 150.309 178.750 C 149.493 180.699, 162.937 180.433, 165.777 178.443 C 167.989 176.894, 168 176.746, 168 147.143 C 168 125.343, 167.680 117.080, 166.800 116.200 C 165.900 115.300, 153.457 115, 116.955 115 C 71.098 115, 68.215 115.105, 66.655 116.829 M 71.571 126.571 C 70.253 127.890, 70 131.203, 70 147.137 C 70 158.318, 70.426 166.927, 71.035 168.066 C 72.208 170.258, 76.899 170.701, 78.800 168.800 C 79.479 168.121, 80 164.867, 80 161.300 L 80 155 85.032 155 C 91.403 155, 95.860 153.144, 99.297 149.059 C 104.839 142.473, 102.060 130.811, 93.980 126.752 C 89.260 124.380, 73.886 124.256, 71.571 126.571 M 80 140.630 L 80 147.260 84.499 146.753 C 90.204 146.110, 92 144.600, 92 140.449 C 92 135.897, 89.773 134, 84.429 134 L 80 134 80 140.630 M 110.207 138.669 C 99.959 143.719, 99.238 161.087, 108.999 167.750 C 112.793 170.340, 119.563 170.771, 122.515 168.612 C 124.143 167.422, 124.740 167.439, 126.707 168.727 C 128.761 170.074, 129.260 170.060, 131.500 168.592 C 133.959 166.981, 134 166.736, 134 153.677 C 134 144.684, 133.613 140.013, 132.800 139.200 C 131.348 137.748, 126.360 137.609, 125.502 138.996 C 125.114 139.625, 123.818 139.440, 121.993 138.496 C 118.273 136.573, 114.343 136.630, 110.207 138.669 M 114.223 147.557 C 112.513 148.754, 112 150.104, 112 153.402 C 112 158.336, 114.199 161, 118.272 161 C 123.531 161, 126.087 152.087, 122 148 C 119.597 145.597, 117.214 145.462, 114.223 147.557" stroke="none" fill="#0580e0" fill-rule="evenodd"/></svg>